HIERARCHY
ROOT SpineBase
{
  OFFSET 0.000000 0.000000 0.000000
  CHANNELS 6 Xposition Yposition Zposition Zrotation Xrotation Yrotation
  JOINT SpineMid
  {
    OFFSET 0.000000 35.925500 0.000000
    CHANNELS 3 Zrotation Xrotation Yrotation
    JOINT SpineShoulder
    {
      OFFSET -0.286839 26.696170 -0.660107
      CHANNELS 3 Zrotation Xrotation Yrotation
      JOINT Neck
      {
        OFFSET -0.163794 8.600492 -0.588269
        CHANNELS 3 Zrotation Xrotation Yrotation
        JOINT Head
        {
          OFFSET -0.210873 11.645525 6.653816
          CHANNELS 3 Zrotation Xrotation Yrotation
          End Site
          {
            OFFSET 0 0 0
          }
        }
      }
      JOINT ShoulderLeft
      {
        OFFSET -14.917897 -4.693825 -10.744095
        CHANNELS 3 Zrotation Xrotation Yrotation
        JOINT ElbowLeft
        {
          OFFSET 29.312409 -13.762911 -12.591287
          CHANNELS 3 Zrotation Xrotation Yrotation
          JOINT WristLeft
          {
            OFFSET -10.287281 -17.975914 26.230039
            CHANNELS 3 Zrotation Xrotation Yrotation
            JOINT HandLeft
            {
              OFFSET -2.353760 -5.923556 6.476745
              CHANNELS 3 Zrotation Xrotation Yrotation
              JOINT HandTipLeft
              {
                OFFSET -0.742371 -0.727888 -0.642796
                CHANNELS 3 Zrotation Xrotation Yrotation
                End Site
                {
                  OFFSET 0 0 0
                }
              }
              JOINT ThumbLeft
              {
                OFFSET -1.209497 -0.524349 -2.311908
                CHANNELS 3 Zrotation Xrotation Yrotation
                End Site
                {
                  OFFSET 0 0 0
                }
              }
            }
          }
        }
      }
      JOINT ShoulderRight
      {
        OFFSET -1.021880 -4.437229 -12.448003
        CHANNELS 3 Zrotation Xrotation Yrotation
        JOINT ElbowRight
        {
          OFFSET 1.749073 -25.845123 -8.108467
          CHANNELS 3 Zrotation Xrotation Yrotation
          JOINT WristRight
          {
            OFFSET -7.234690 -25.221610 -4.227128
            CHANNELS 3 Zrotation Xrotation Yrotation
            JOINT HandRight
            {
              OFFSET -2.866686 -6.767503 0.520985
              CHANNELS 3 Zrotation Xrotation Yrotation
              JOINT HandTipRight
              {
                OFFSET -1.884360 -7.336524 1.383082
                CHANNELS 3 Zrotation Xrotation Yrotation
                End Site
                {
                  OFFSET 0 0 0
                }
              }
              JOINT ThumbRight
              {
                OFFSET 6.040137 0.786035 4.570247
                CHANNELS 3 Zrotation Xrotation Yrotation
                End Site
                {
                  OFFSET 0 0 0
                }
              }
            }
          }
        }
      }
    }
  }
  JOINT HipLeft
  {
    OFFSET -7.388114 -2.366057 -1.833035
    CHANNELS 3 Zrotation Xrotation Yrotation
    JOINT KneeLeft
    {
      OFFSET 13.466789 -36.529012 -7.201393
      CHANNELS 3 Zrotation Xrotation Yrotation
      JOINT AnkleLeft
      {
        OFFSET 6.620544 -34.676567 6.906804
        CHANNELS 3 Zrotation Xrotation Yrotation
        JOINT FootLeft
        {
          OFFSET -3.425154 -2.507332 -11.397513
          CHANNELS 3 Zrotation Xrotation Yrotation
          End Site
          {
            OFFSET 0 0 0
          }
        }
      }
    }
  }
  JOINT HipRight
  {
    OFFSET 5.253549 3.508917 -5.437079
    CHANNELS 3 Zrotation Xrotation Yrotation
    JOINT KneeRight
    {
      OFFSET -1.982598 -33.940243 -6.643242
      CHANNELS 3 Zrotation Xrotation Yrotation
      JOINT AnkleRight
      {
        OFFSET 8.312805 -39.125590 0.956161
        CHANNELS 3 Zrotation Xrotation Yrotation
        JOINT FootRight
        {
          OFFSET -3.761004 -7.651178 -3.156431
          CHANNELS 3 Zrotation Xrotation Yrotation
          End Site
          {
            OFFSET 0 0 0
          }
        }
      }
    }
  }
}
MOTION
Frames: 11
Frame Time: 0.033333
100.996411 91.558688 340.154478 -0.501033 0.693008 22.441719 -0.291426 0.039014 -22.453419 0.023826 0.131343 -0.024052 2.107331 -1.393740 -0.714341 0.000000 0.000000 0.000000 0.761946 -0.748647 0.042813 -0.000000 0.000000 0.000000 -15.086789 10.822042 -20.297465 48.901061 -19.391359 43.015412 0.000000 0.000000 0.000000 0.000000 0.000000 0.000000 2.002060 -3.624850 -0.496700 -3.393083 1.937746 1.321840 17.985803 -1.652176 1.846450 -18.837165 6.463628 -3.172313 0.000000 0.000000 0.000000 0.000000 0.000000 0.000000 -2.929047 -2.279742 -23.001441 1.965691 8.537019 1.557474 3.362725 -22.090457 21.491765 0.000000 0.000000 0.000000 0.133960 -5.337876 -22.521668 -1.681628 5.276225 0.374319 -5.899402 -4.370202 3.491538 0.000000 0.000000 0.000000
101.499708 92.284957 340.261363 -0.357297 0.436105 26.857831 0.121742 -0.550478 -26.855886 -0.000000 0.000000 0.000000 1.781032 -1.245023 -1.026948 0.000000 0.000000 0.000000 -0.000000 0.000000 0.000000 -0.000000 0.000000 0.000000 -20.620172 18.106923 -29.116616 68.798236 -13.736660 57.598028 0.000000 0.000000 0.000000 0.000000 0.000000 0.000000 0.870375 -3.310512 -0.476089 -3.148729 2.440616 1.255921 18.188341 -2.136557 2.122736 -19.896483 7.620278 -3.518245 0.000000 0.000000 0.000000 0.000000 0.000000 0.000000 -3.750921 -3.574816 -28.243421 -0.233829 13.318223 2.840613 4.378350 -22.594099 14.635726 0.000000 0.000000 0.000000 -1.416913 -4.941427 -26.779359 0.214129 5.525050 0.015642 -7.267719 -3.754070 3.518750 0.000000 0.000000 0.000000
101.911941 93.211566 340.442877 -0.262961 0.283901 30.278171 0.083951 -0.377757 -30.277243 -0.825595 -0.369823 -0.066173 3.011785 -1.736223 -1.212535 0.000000 0.000000 0.000000 0.825184 0.370738 0.060839 -0.000000 0.000000 0.000000 -26.763748 25.028569 -38.263693 82.102437 -2.220599 61.573186 0.000000 0.000000 0.000000 0.000000 0.000000 0.000000 1.551883 -3.094761 -0.387471 -2.774422 2.766285 1.129231 17.884190 -2.497264 2.382695 -22.800800 13.673814 -4.971249 0.000000 0.000000 0.000000 0.000000 0.000000 0.000000 -5.022220 -5.050793 -32.593896 -3.249645 20.472782 5.048869 6.035742 -24.107623 5.650579 0.000000 0.000000 0.000000 -2.788206 -4.228084 -30.006352 2.917676 5.699638 -0.366194 -7.936370 -1.188970 2.011108 0.000000 0.000000 0.000000
102.356196 94.058843 340.355941 -0.527330 -0.636250 33.263606 -0.683049 -0.165897 -33.304479 -0.086279 -0.243283 -0.065483 3.711430 -1.834022 -1.479920 0.000000 0.000000 0.000000 2.943772 2.188186 0.021704 -1.852101 -0.791613 -0.004408 -29.702185 24.961409 -40.579454 79.561092 3.756339 49.732167 0.000000 0.000000 0.000000 0.000000 0.000000 0.000000 1.586113 -2.399194 -0.322100 -2.441366 2.579555 1.203075 17.095678 -2.410315 2.256768 -23.229314 15.831049 -5.369097 0.000000 0.000000 0.000000 0.000000 0.000000 0.000000 -4.981573 -6.214444 -36.538056 -7.676214 24.893924 7.298167 8.816131 -23.165517 -1.983965 0.000000 0.000000 0.000000 -3.556805 -2.739467 -32.682149 6.746562 6.549092 -0.747120 -7.709883 1.774693 -0.980220 0.000000 0.000000 0.000000
102.613684 94.615938 340.351472 -1.153323 -1.986326 34.855648 -0.619433 -0.197577 -34.940212 -0.059965 -0.384502 -0.103725 4.802855 -1.396854 -1.862012 0.000000 0.000000 0.000000 2.960308 3.511859 0.121184 -1.237705 0.271721 -0.417669 -28.067345 24.949710 -39.910726 80.077964 1.902273 51.704168 0.000000 0.000000 0.000000 0.000000 0.000000 0.000000 1.750833 -1.600028 -0.229594 -1.962905 3.077806 1.179206 16.159933 -2.758895 2.398187 -23.398319 18.596040 -5.825589 0.000000 0.000000 0.000000 0.000000 0.000000 0.000000 -2.276247 -7.152645 -38.767927 -14.887301 23.794175 8.397009 13.409617 -17.051729 -6.959944 0.000000 0.000000 0.000000 -3.603632 -0.620331 -33.868030 11.502278 7.421405 -1.113289 -6.759228 0.084216 -2.856858 0.000000 0.000000 0.000000
102.800609 95.003791 339.812804 -2.133614 -3.862286 33.347000 -0.469926 -0.266652 -33.526134 0.033540 -0.427329 -0.155254 5.413492 -1.381097 -1.867236 0.000000 0.000000 0.000000 1.435899 4.254497 -0.083259 0.887442 0.528292 0.302893 -26.291115 24.955138 -37.835314 85.514717 -0.846393 55.974268 0.000000 0.000000 0.000000 0.000000 0.000000 0.000000 1.980519 -0.549653 -0.084865 -1.538777 2.940875 1.368619 16.227725 -4.269492 3.225096 -25.667840 25.536615 -6.676856 0.000000 0.000000 0.000000 0.000000 0.000000 0.000000 -0.317167 -8.046271 -38.142306 -17.622137 23.755162 9.449997 15.107745 -11.492856 -12.587066 0.000000 0.000000 0.000000 -2.149709 1.674015 -32.124575 14.790838 7.749564 -1.115851 -5.027221 2.447339 -6.706247 0.000000 0.000000 0.000000
103.032852 94.594983 338.554317 -3.110830 -5.521238 30.348362 -0.312463 -0.291302 -30.647893 0.138984 -0.406549 -0.205675 5.705588 -2.197865 -1.669388 0.000000 0.000000 0.000000 -1.592373 3.896644 -0.448959 4.608148 2.507799 0.925115 -22.525018 20.599243 -32.155893 85.293092 -7.217479 54.994179 0.000000 0.000000 0.000000 0.000000 0.000000 0.000000 2.083644 0.103750 0.103508 -1.019472 2.421025 1.645743 14.394823 -1.546101 1.458576 -24.624416 24.256970 -6.500846 0.000000 0.000000 0.000000 0.000000 0.000000 0.000000 0.296809 -9.281924 -36.341965 -17.219956 25.006414 10.728232 14.533401 -7.479782 -16.581848 0.000000 0.000000 0.000000 -0.500848 3.479519 -29.100453 16.617159 8.173140 -0.901983 -2.562875 7.298873 -11.915008 0.000000 0.000000 0.000000
103.436231 93.877716 336.978539 -3.839296 -6.884093 28.096583 -0.304712 -0.425337 -28.517861 0.200373 -0.473159 -0.253752 5.761997 -3.716882 -1.423150 0.000000 0.000000 0.000000 -5.972582 2.906620 -0.972896 10.082796 3.278521 3.413996 -19.314838 21.768189 -29.707631 84.106753 -11.911713 56.754846 0.000000 0.000000 0.000000 0.000000 0.000000 0.000000 2.073513 0.607676 0.276495 -0.382731 1.782829 1.965079 13.139038 -0.078291 0.593322 -24.960013 26.418962 -6.643666 0.000000 0.000000 0.000000 0.000000 0.000000 0.000000 -1.373896 -9.059469 -34.697804 -10.518476 26.037175 10.082957 10.807558 -4.349828 -19.551013 0.000000 0.000000 0.000000 0.937479 4.752588 -26.964737 17.257102 8.779341 -0.660889 0.349067 13.306090 -17.645646 0.000000 0.000000 0.000000
103.937955 92.726965 335.003938 -4.514444 -8.516648 26.540523 -0.233663 -0.516759 -27.110050 0.321345 -0.218784 -0.284375 5.372595 -5.568578 -0.990489 0.000000 0.000000 0.000000 -11.235578 1.473662 -1.648242 15.889551 4.018171 5.353388 -17.810649 28.606701 -31.952485 90.457356 -10.751795 66.857857 0.000000 0.000000 0.000000 0.000000 0.000000 0.000000 1.651148 0.804564 0.544631 0.574503 1.268582 2.190779 9.340014 4.727681 -1.824006 -22.886184 21.998976 -6.010475 0.000000 0.000000 0.000000 0.000000 0.000000 0.000000 -4.056826 -10.111407 -34.574420 -4.024835 29.143873 10.051171 6.666185 -3.960460 -20.165402 0.000000 0.000000 0.000000 2.794440 5.675265 -25.739823 16.315739 9.183718 -0.444174 5.356876 21.606950 -25.095977 0.000000 0.000000 0.000000
104.318875 91.466311 333.111608 -5.126680 -10.204482 25.289718 -0.137309 -0.490038 -26.017351 0.360139 -0.009229 -0.314664 4.968414 -7.951615 -0.533036 0.000000 0.000000 0.000000 -14.806333 1.469990 0.435382 19.076296 0.634184 4.213155 -17.355146 31.266874 -30.694736 95.025602 -10.121901 72.756561 0.000000 0.000000 0.000000 0.000000 0.000000 0.000000 1.218671 0.941330 0.844103 1.514175 0.976772 2.346439 6.680430 5.851451 -2.132785 -18.694745 21.028640 -5.778754 0.000000 0.000000 0.000000 0.000000 0.000000 0.000000 -7.242290 -10.781665 -34.614778 4.355504 32.045313 8.575878 1.981869 -7.241696 -19.584713 0.000000 0.000000 0.000000 5.131593 6.420484 -25.074904 14.009196 8.921704 -0.152038 7.287164 24.009295 -26.755927 0.000000 0.000000 0.000000
104.837943 90.288105 331.200158 -5.529804 -11.725407 23.985132 -0.089977 -0.465304 -24.851008 0.415609 0.123038 -0.340997 4.384912 -10.764494 -0.086156 0.000000 0.000000 0.000000 -21.464730 -1.292693 -3.773225 27.247573 5.315768 9.114700 -14.874048 25.899586 -26.674919 89.517083 -17.612883 71.621991 0.000000 0.000000 0.000000 0.000000 0.000000 0.000000 0.285610 1.011660 1.303171 2.954421 0.682577 2.291519 4.524371 7.657442 -2.624056 -14.063327 19.066324 -5.441031 0.000000 0.000000 0.000000 0.000000 0.000000 0.000000 -10.874044 -11.170668 -34.314927 12.668333 35.540691 6.348394 -2.004443 -7.177546 -20.614878 0.000000 0.000000 0.000000 7.135109 6.978692 -24.394550 11.634895 8.530671 0.061088 11.130338 28.468396 -30.749384 0.000000 0.000000 0.000000
